<!--<svg xmlns="http://www.w3.org/2000/svg" width="180" height="582">-->
    <!--<g>-->
        <!--<path fill="#060606"-->
              <!--d="m150,30c0,0 0,149 0,149c-32,-31 -92,-91 -92,-91c0,0 -17,-17 -17,-17c-7.38,-7.38 -10.98,-8.34 -11,-19c0,0 0,-22 0,-22c0,0 120,0 120,0zm-11,181c7.38,7.38 10.98,8.34 11,19c0,0 0,322 0,322c0,0 -120,0 -120,0c0,0 0,-449 0,-449l109,108z"/>-->
    <!--</g>-->
<!--</svg>-->
<svg width="180" height="522" xmlns="http://www.w3.org/2000/svg">
    <g>
        <path fill="#060606"
              d="m150,0c0,0 0,149 0,149c-32,-31 -92,-91 -92,-91c0,0 -17,-17 -17,-17c-7.38,-7.38 -10.98,-8.34 -11,-19c0,0 0,-22 0,-22c0,0 120,0 120,0zm-11,181c7.38,7.38 10.98,8.34 11,19c0,0 0,322 0,322c0,0 -120,0 -120,0c0,0 0,-449 0,-449l109,108z"/>
    </g>
</svg>